<?xml version="1.0" encoding="UTF-8"?>
<svg width="32px" height="32px" viewBox="0 0 32 32" version="1.1" xmlns="http://www.w3.org/2000/svg">
  <title>SafeBite Logo</title>
  <g stroke="none" stroke-width="1" fill="none" fill-rule="evenodd">
    <circle fill="#0F172A" cx="16" cy="16" r="16"></circle>
    <path d="M16,6 C21.5228,6 26,10.4772 26,16 C26,21.5228 21.5228,26 16,26 C10.4772,26 6,21.5228 6,16 C6,10.4772 10.4772,6 16,6 Z" fill="#0EA5E9" opacity="0.2"></path>
    <path d="M16,8 C20.4183,8 24,11.5817 24,16 C24,20.4183 20.4183,24 16,24 C11.5817,24 8,20.4183 8,16 C8,11.5817 11.5817,8 16,8 Z" fill="#0EA5E9" opacity="0.4"></path>
    <path d="M16,10 C19.3137,10 22,12.6863 22,16 C22,19.3137 19.3137,22 16,22 C12.6863,22 10,19.3137 10,16 C10,12.6863 12.6863,10 16,10 Z" fill="#0EA5E9"></path>
    <path d="M16,13 C17.6569,13 19,14.3431 19,16 C19,17.6569 17.6569,19 16,19 C14.3431,19 13,17.6569 13,16 C13,14.3431 14.3431,13 16,13 Z" fill="#FFFFFF"></path>
  </g>
</svg>
